<?xml version="1.0" encoding="UTF-8" standalone="no"?>
<svg
    xmlns="http://www.w3.org/2000/svg"
    version="1.1"
    viewBox='0 0 23 23'>
  <defs />

  <g style="fill:#000000;fill-opacity:.5;stroke:none">
    <rect x="1" y="1" width="7" height="1"/>
    <rect x="1" y="7" width="7" height="1"/>
    <rect x="1" y="2" width="1" height="5"/>
    <rect x="7" y="2" width="1" height="5"/>
    <rect x="3" y="3" width="3" height="3"/>

    <rect x="15" y="1" width="7" height="1"/>
    <rect x="15" y="7" width="7" height="1"/>
    <rect x="15" y="2" width="1" height="5"/>
    <rect x="21" y="2" width="1" height="5"/>
    <rect x="17" y="3" width="3" height="3"/>

    <rect x="1" y="15" width="7" height="1"/>
    <rect x="1" y="21" width="7" height="1"/>
    <rect x="1" y="16" width="1" height="5"/>
    <rect x="7" y="16" width="1" height="5"/>
    <rect x="3" y="17" width="3" height="3"/>

    <rect x="9" y="1" width="2" height="1"/>
    <rect x="12" y="1" width="2" height="1"/>

    <rect x="10" y="2" width="1" height="1"/>

    <rect x="10" y="3" width="3" height="1"/>

    <rect x="9" y="4" width="1" height="5"/>
    <rect x="11" y="4" width="3" height="1"/>

    <rect x="10" y="5" width="2" height="1"/>
    <rect x="13" y="5" width="1" height="1"/>

    <rect x="11" y="6" width="2" height="1"/>

    <rect x="11" y="7" width="1" height="1"/>
    <rect x="13" y="7" width="1" height="1"/>

    <rect x="12" y="8" width="2" height="1"/>

    <rect x="1" y="9" width="1" height="1"/>
    <rect x="5" y="9" width="1" height="1"/>
    <rect x="7" y="9" width="6" height="1"/>
    <rect x="14" y="9" width="5" height="1"/>
    <rect x="21" y="9" width="1" height="1"/>

    <rect x="3" y="10" width="1" height="1"/>
    <rect x="5" y="10" width="2" height="1"/>
    <rect x="8" y="10" width="1" height="1"/>
    <rect x="10" y="10" width="1" height="1"/>
    <rect x="12" y="10" width="2" height="1"/>
    <rect x="17" y="10" width="2" height="1"/>
    <rect x="20" y="10" width="1" height="8"/>

    <rect x="4" y="11" width="1" height="1"/>
    <rect x="7" y="11" width="3" height="1"/>
    <rect x="12" y="11" width="1" height="1"/>
    <rect x="14" y="11" width="2" height="1"/>
    <rect x="17" y="11" width="3" height="1"/>

    <rect x="1" y="12" width="3" height="1"/>
    <rect x="6" y="12" width="1" height="1"/>
    <rect x="8" y="12" width="1" height="1"/>
    <rect x="11" y="12" width="1" height="1"/>

    <rect x="1" y="13" width="2" height="1"/>
    <rect x="4" y="13" width="5" height="1"/>
    <rect x="13" y="13" width="2" height="1"/>
    <rect x="18" y="13" width="1" height="1"/>
    <rect x="21" y="13" width="1" height="1"/>

    <rect x="9" y="14" width="1" height="1"/>
    <rect x="13" y="14" width="1" height="1"/>
    <rect x="17" y="14" width="3" height="1"/>

    <rect x="9" y="15" width="3" height="1"/>
    <rect x="13" y="15" width="1" height="1"/>
    <rect x="15" y="15" width="1" height="1"/>
    <rect x="17" y="15" width="2" height="1"/>

    <rect x="12" y="16" width="3" height="1"/>
    <rect x="16" y="16" width="1" height="1"/>
    <rect x="21" y="16" width="1" height="1"/>

    <rect x="9" y="17" width="4" height="1"/>
    <rect x="16" y="17" width="2" height="1"/>

    <rect x="10" y="18" width="1" height="1"/>
    <rect x="13" y="18" width="1" height="1"/>
    <rect x="15" y="18" width="1" height="1"/>
    <rect x="17" y="18" width="1" height="1"/>
    <rect x="20" y="18" width="2" height="1"/>

    <rect x="12" y="19" width="1" height="1"/>
    <rect x="14" y="19" width="1" height="1"/>
    <rect x="16" y="19" width="2" height="2"/>

    <rect x="13" y="20" width="2" height="1"/>

    <rect x="9" y="21" width="3" height="1"/>
    <rect x="14" y="21" width="1" height="1"/>
    <rect x="17" y="21" width="2" height="1"/>
    <rect x="21" y="21" width="1" height="1"/>
  </g>
</svg>