<?xml version="1.0"?>
<svg
     xmlns="http://www.w3.org/2000/svg" xmlns:xlink="http://www.w3.org/1999/xlink"
     version="1.1"
     viewBox='0 0 256 256'>

  <defs/>

  <g opacity="0.75" style="fill:#553311">
    <path d="m133.5625,74.875c4.257385,9.423279 12.847977,21.598328 13.538101,41.282776c0.787582,22.464417 -9.831436,33.127991 -21.006851,49.685974c-19.02652,1.100769 -24.734268,-4.114075 -35.557152,-13.131836c0,0 -0.482277,-4.9104 5.682152,-13.930664c-9.244713,6.696594 -9.40625,11.71875 -9.40625,11.71875c-6.529991,-2.911255 -13.731628,-2.941406 -20.21875,0.25c10.955269,-1.993103 16.527542,2.403381 25.760918,11.118164c11.79287,11.130493 14.866409,10.574524 27.964684,14.03656c-5.91954,10.649963 -15.50782,21.166199 -23.15625,54.466187l44.778244,-0.214722c-12.96701,-23.289001 -14.075554,-41.663574 0.565277,-64.085632c5.845428,-8.952087 23.094513,-10.657593 30.657761,-6.762207c17.814957,9.175537 25.484863,5.595459 29.400909,1.705322c-12.294983,5.308472 -19.068497,-1.402466 -24.883362,-4.892822c0,0 7.387238,-1.322144 9.849319,-5.589661c-2.164429,0.667419 -12.030991,4.855896 -15.345261,2.198425c-5.999924,-2.383972 -16.745514,-4.591064 -25.453766,-0.489075c2.009613,-10.273438 7.81189,-22.802673 5.631851,-36.169983c0,0 2.474762,-6.356323 11.729675,-11.508118c-9.953293,2.655945 -12.425293,6.924011 -12.425293,6.924011c-3.483154,-11.876953 -10.528976,-27.213684 -18.105957,-36.61145z"/>
  </g>

  <g opacity="0.75" style="fill:#339933" >
    <path d="m90.463387,73.030884c-9.674294,0 -18.122757,4.668274 -22.749268,11.651245c-2.911118,-4.866577 -7.440159,-7.985657 -12.516979,-7.985657c-4.289978,0 -8.172668,2.219177 -11.032909,5.847412c-3.621479,-2.871521 -8.02034,-4.56012 -12.77083,-4.56012c-12.34737,0 -22.35872,11.384705 -22.35872,25.418884c0,13.684814 9.51912,24.828186 21.44094,25.375244c-0.402309,1.867126 -0.62487,3.827271 -0.62487,5.847473c0,12.725891 8.515411,23.040649 19.000031,23.040649c8.021301,0 14.872261,-6.039063 17.652653,-14.574951c2.974358,1.184631 6.292465,1.876404 9.802689,1.876404c12.666687,0 22.944542,-8.64325 22.944542,-19.287842c0,-2.045227 -0.391205,-4.019714 -1.093536,-5.869263c10.887192,-2.971741 18.824295,-12.075745 18.824295,-22.866089c0,-13.20166 -11.882141,-23.913391 -26.518036,-23.913391z"/>
    <path d="m228.746414,109.437256c-4.93486,0 -9.393112,2.017334 -12.673187,5.258362c-1.981232,-1.392456 -4.452927,-2.225525 -7.166534,-2.225525c-6.439774,0 -11.677292,4.661072 -11.677292,10.429382c0,0.39801 0.0298,0.791748 0.078094,1.178223c-7.574158,1.169312 -13.376175,7.463806 -13.376175,15.076782c0,8.444275 7.133194,15.294983 15.914719,15.294983c1.056427,0 2.086517,-0.094604 3.085312,-0.283691c0.830612,7.928284 6.584686,14.07312 13.571457,14.07312c7.557434,0 13.688614,-7.176208 13.688614,-16.036804c0,-2.020142 -0.316971,-3.957825 -0.898254,-5.738342c9.805191,-0.2948 17.67218,-8.46051 17.67218,-18.502319c0,-10.228333 -8.160095,-18.52417 -18.218948,-18.52417l0.000015,0z"/>
    <path d="m123.513977,25.643005c-9.420197,0 -17.04731,8.008545 -17.04731,17.906311c0,8.623535 5.790085,15.83197 13.512871,17.543152c2.697235,7.033813 9.077042,11.956177 16.539597,11.956177c2.313309,0 4.531052,-0.475525 6.561172,-1.340881c0.009995,9.42804 5.046478,17.068237 11.267227,17.068237c0.463287,0 0.918259,-0.057312 1.366913,-0.139709c1.977875,9.652893 7.995239,16.677185 15.114105,16.677185c5.479782,0 10.306808,-4.157288 13.141846,-10.475586c14.702393,-0.162354 26.557083,-11.584045 26.557083,-25.644287c0,-12.21936 -8.955338,-22.427734 -20.952759,-25.00177c-3.723907,-10.036133 -13.210876,-17.179993 -24.330978,-17.179993c-8.053558,0 -15.242844,3.761475 -20.015442,9.637512c-2.150055,-1.298157 -4.568985,-2.161865 -7.146988,-2.402405c-2.995087,-5.156311 -8.397308,-8.603943 -14.567337,-8.603943z"/>
  </g>

</svg>