<?xml version="1.0"?>
<svg
     xmlns="http://www.w3.org/2000/svg" xmlns:xlink="http://www.w3.org/1999/xlink"
     version="1.1"
     viewBox='0 0 256 230'>
  
  <defs/>

  <g opacity="0.5" style="fill:#553311">
    <path d="m144,118c-2.75,30 -9,31 -20,47c-19,1 -24,-4 -35,-13c0,0 0,-4 5,-13c-7,7 -9,11 -9,11c-6,-2 -13,-2 -20,0.25c10,-1 13,1.5 25,11c11.5,9.5 14,10 27,14c-5,10 -15,21 -23,54l44,0c-12,-23 -14,-41 0,-64c5,-8 23,-10 30,-6c17,9 25,5 29,1c-12,5 -19,-1 -24,-4c0,0 7,-1 9,-5c-5,2 -10,3 -15,2c-5,-2 -16,-2 -25,0c2,-10 5.5,-21.5 5,-36c-0,-3 2,-6 11,-11c-9,2 -12,6 -12,6c-0.5,-3 -3,-22 -16,-38c11,15 14,35 14,43z"/>
  </g>
  
  <g opacity="0.5" style="fill:#339933" >
    <path d="m90,70c-9,0 -18,4 -22,10c-2,-4 -7,-7 -12,-7c-4,0 -8,2 -11,5c-3,-2 -8,-4 -12,-4c-12,0 -22,11 -22,25c0,13 9,24 21,25c-0,1 -0,3 -0,5c0,12 8,23 19,23c8,0 14,-6 17,-14c2,1 6,1 9,1c12,0 22,-8 22,-19c0,-2 -0,-4 -1,-5c10,-2 18,-12 18,-22c0,-13 -11,-23 -26,-23z"/>
    <path d="m228,109c-4,0 -9,2 -12,4c-1,-1 -4,-2 -7,-2c-6,0 -11,4 -11,10c0,0 0,0 0,1c-7,1 -13,7 -13,15c0,8 7,15 15,15c1,0 2,-0 3,-0c0,7 6,14 13,14c7,0 13,-7 13,-16c0,-2 -0,-3 -0,-5c9,-0 17,-8 17,-18c0,-10 -8,-18 -18,-18l0,0z"/>
    <path d="m123,25c-9,0 -17,8 -17,18c0,8 5,15 13,17c2,7 9,11 16,11c2,0 4,-0 6,-1c0,9 5,17 11,17c0,0 0,-0 1,-0c1,9 7,16 15,16c5,0 10,-4 13,-10c14,-0 26,-11 26,-25c0,-12 -8,-22 -20,-25c-3,-10 -13,-17 -24,-17c-8,0 -15,3 -20,9c-2,-1 -4,-2 -7,-2c-2,-5 -8,-8 -14,-8z"/>
  </g>
  
</svg>